<?xml version="1.0" encoding="UTF-8"?>
<svg id="Layer_2" data-name="Layer 2" xmlns="http://www.w3.org/2000/svg" viewBox="0 0 103.89 45.86">
  <defs>
    <style>
      .cls-1 {
        fill: #fff;
      }
    </style>
  </defs>
  <g id="Layer_1-2" data-name="Layer 1">
    <g id="Symbols">
      <g id="Ultralight-S">
        <path class="cls-1" d="M18.4,45.86h58.1c7.62,0,11.56-1.04,14.49-3.91,2.88-2.92,3.86-6.78,3.86-14.49v-9.06c0-7.7-.99-11.61-3.86-14.48-2.97-2.88-6.87-3.92-14.49-3.92H17.94C10.83,0,6.83,1.08,3.95,3.96,1.03,6.88,0,10.79,0,17.9v9.56c0,7.7,.99,11.61,3.91,14.49,2.92,2.88,6.83,3.91,14.49,3.91Zm-.98-2.17c-5.52,0-9.44-1.08-11.83-3.46-2.39-2.39-3.37-6.22-3.37-11.78v-10.57c0-5.93,.98-9.89,3.32-12.28,2.39-2.43,6.45-3.41,12.33-3.41h59.61c5.52,0,9.4,1.07,11.78,3.46,2.39,2.39,3.41,6.22,3.41,11.78v11.03c0,5.56-1.07,9.4-3.41,11.78-2.39,2.43-6.27,3.46-11.78,3.46H17.41Zm80.51-12.46c2.53-.15,5.96-3.43,5.96-8.3s-3.43-8.15-5.96-8.3V31.23Z"/>
        <path class="cls-1" d="M17.29,40.63h60.27c4.96,0,7.91-.79,9.56-2.49,1.7-1.75,2.54-4.69,2.54-9.56v-11.29c0-4.96-.84-7.82-2.49-9.56-1.7-1.65-4.74-2.49-9.61-2.49H17.74c-5.32,0-8.41,.79-10.06,2.44-1.65,1.75-2.45,4.78-2.45,10.06v10.83c0,4.96,.8,7.82,2.45,9.56,1.75,1.65,4.78,2.49,9.61,2.49Z"/>
      </g>
    </g>
  </g>
</svg>