<?xml version="1.0" encoding="UTF-8"?>
<svg id="Layer_2" data-name="Layer 2" xmlns="http://www.w3.org/2000/svg" viewBox="0 0 119.63 74.9">
  <defs>
    <style>
      .cls-1 {
        fill: #fff;
      }
    </style>
  </defs>
  <g id="Layer_1-2" data-name="Layer 1">
    <g id="Symbols">
      <g id="Black-S">
        <path class="cls-1" d="M9.13,74.9h6.15c5.47,0,9.13-3.42,9.13-8.5v-13.87c0-5.08-3.66-8.5-9.13-8.5h-6.15c-5.47,0-9.13,3.42-9.13,8.5v13.87c0,5.08,3.66,8.5,9.13,8.5Z"/>
        <path class="cls-1" d="M40.87,74.9h6.15c5.47,0,9.13-3.42,9.13-8.5v-25.68c0-5.08-3.66-8.5-9.13-8.5h-6.15c-5.47,0-9.13,3.42-9.13,8.5v25.68c0,5.08,3.66,8.5,9.13,8.5Z"/>
        <path class="cls-1" d="M72.61,74.9h6.15c5.47,0,9.13-3.42,9.13-8.5V25.34c0-5.08-3.66-8.5-9.13-8.5h-6.15c-5.47,0-9.13,3.42-9.13,8.5v41.06c0,5.08,3.66,8.5,9.13,8.5Z"/>
        <path class="cls-1" d="M104.35,74.9h6.15c5.47,0,9.13-3.42,9.13-8.5V8.5c0-5.08-3.66-8.5-9.13-8.5h-6.15c-5.47,0-9.13,3.42-9.13,8.5v57.91c0,5.08,3.66,8.5,9.13,8.5Z"/>
      </g>
    </g>
  </g>
</svg>