<?xml version="1.0" encoding="UTF-8"?>
<svg id="Layer_2" data-name="Layer 2" xmlns="http://www.w3.org/2000/svg" viewBox="0 0 76.51 76.95">
  <defs>
    <style>
      .cls-1 {
        fill: #fff;
      }
    </style>
  </defs>
  <g id="Layer_1-2" data-name="Layer 1">
    <g id="Symbols">
      <g id="Regular-S">
        <path class="cls-1" d="M60.06,51.66c-20.95,0-34.03-12.79-34.03-33.74,0-3.96,1.12-10.55,2.44-13.62,.39-.98,.44-1.61,.44-2,0-1.03-.78-2.29-2.39-2.29-.44,0-1.46,.1-2.49,.49C9.62,6.15,0,21.58,0,37.89c0,22.95,17.38,39.06,40.28,39.06,16.8,0,31.01-10.16,35.79-22.71,.34-1.03,.44-2.05,.44-2.44,0-1.51-1.27-2.49-2.39-2.49-.54,0-1.03,.1-1.86,.34-2.98,.98-7.62,2-12.21,2Z"/>
      </g>
    </g>
  </g>
</svg>