<?xml version="1.0" encoding="UTF-8"?>
<svg id="Layer_2" data-name="Layer 2" xmlns="http://www.w3.org/2000/svg" viewBox="0 0 104.44 74.2">
  <defs>
    <style>
      .cls-1 {
        fill: #fff;
      }
    </style>
  </defs>
  <g id="Layer_1-2" data-name="Layer 1">
    <g id="Symbols">
      <g id="Regular-S">
        <path class="cls-1" d="M41.6,71.33c2.69,0,4.74-1.95,4.74-4.69V7.91c0-2.69-2.05-4.93-4.83-4.93-1.95,0-3.27,.83-5.47,2.93l-16.06,14.94c-.2,.2-.49,.34-.78,.34H8.5C2.88,21.19,0,24.07,0,30.12v14.11c0,6.01,2.88,8.94,8.5,8.94h10.69c.29,0,.59,.1,.78,.29l16.06,15.23c2,1.86,3.61,2.64,5.57,2.64Z"/>
        <path class="cls-1" d="M59.47,53.56c1.46,.98,3.52,.68,4.69-1.03,2.93-3.91,4.64-9.67,4.64-15.43s-1.71-11.47-4.64-15.43c-1.17-1.71-3.22-2-4.69-.98-1.76,1.22-2.05,3.37-.68,5.18,2.05,2.78,3.22,7.03,3.22,11.23s-1.22,8.4-3.22,11.23c-1.32,1.86-1.07,3.95,.68,5.22Z"/>
        <path class="cls-1" d="M74.17,63.47c1.61,1.07,3.61,.73,4.79-.98,4.88-6.79,7.71-16.02,7.71-25.39s-2.78-18.7-7.71-25.39c-1.17-1.71-3.17-2.05-4.79-.98-1.61,1.07-1.9,3.12-.63,4.93,4.05,5.76,6.35,13.53,6.35,21.44s-2.39,15.62-6.35,21.44c-1.22,1.81-.98,3.86,.63,4.93Z"/>
        <path class="cls-1" d="M88.96,73.58c1.51,1.12,3.66,.68,4.83-1.07,6.84-9.62,10.64-22.22,10.64-35.4s-3.95-25.73-10.64-35.4c-1.17-1.81-3.32-2.2-4.83-1.07-1.61,1.12-1.86,3.17-.63,4.98,5.91,8.54,9.42,19.73,9.42,31.49s-3.51,23-9.42,31.49c-1.22,1.81-.98,3.86,.63,4.98Z"/>
      </g>
    </g>
  </g>
</svg>