<?xml version="1.0" encoding="UTF-8"?>
<svg id="Layer_2" data-name="Layer 2" xmlns="http://www.w3.org/2000/svg" viewBox="0 0 88.59 64.06">
  <defs>
    <style>
      .cls-1 {
        fill: #fff;
      }
    </style>
  </defs>
  <g id="Layer_1-2" data-name="Layer 1">
    <g id="Symbols">
      <g id="Regular-S">
        <path class="cls-1" d="M44.28,64.06c.93,0,1.66-.39,3.22-1.9l9.42-9.03c.59-.59,.73-1.56,.2-2.25-2.59-3.32-7.32-6.2-12.84-6.2s-10.45,3.03-12.99,6.49c-.39,.59-.2,1.37,.44,1.95l9.33,9.03c1.56,1.46,2.34,1.9,3.22,1.9Z"/>
        <path class="cls-1" d="M21.87,43.21c.83,.88,1.95,.73,2.78-.15,4.49-5.08,11.91-8.79,19.63-8.74,7.81-.05,15.19,3.81,19.82,8.89,.73,.83,1.76,.78,2.64-.05l6.1-6.01c.63-.63,.68-1.56,.15-2.29-5.86-7.08-16.55-12.55-28.71-12.55s-22.85,5.47-28.66,12.55c-.59,.73-.59,1.56,.15,2.29l6.1,6.05Z"/>
        <path class="cls-1" d="M6,27.25c.73,.78,1.9,.78,2.69-.05,9.42-10.01,21.78-15.23,35.6-15.23s26.32,5.27,35.74,15.28c.68,.73,1.81,.68,2.59-.1l5.47-5.42c.68-.73,.63-1.61,.1-2.29C79.19,8.3,62.25,0,44.28,0S9.42,8.3,.39,19.43c-.54,.68-.54,1.56,.15,2.29l5.47,5.52Z"/>
      </g>
    </g>
  </g>
</svg>